<svg xmlns="http://www.w3.org/2000/svg" xmlns:xlink="http://www.w3.org/1999/xlink" version="1.1" id="layer" x="0px" y="0px" viewBox="0 0 652 652" style="enable-background:new 0 0 652 652;" xml:space="preserve">
<style type="text/css">
	.st0{fill:#a8a3a3;}
</style>
<path class="st0" d="M170.2,263.1v-44.3H22v206.5h44.5v-73.8h88.9v-44.3H66.5v-44.3H170.2z M228.6,218.8h-44.5v206.5h44.5V218.8z   M395.3,366.6c-9,8.5-20.3,14.2-32.5,16.4c-12.2,2.2-24.8,0.8-36.2-4.1c-11.4-4.9-21.1-12.9-28-23.2c-6.9-10.3-10.5-22.3-10.6-34.7  c-0.1-12.3,3.5-24.4,10.3-34.8c6.8-10.3,16.4-18.5,27.8-23.5c11.4-5,23.9-6.5,36.2-4.4c12.2,2.1,23.6,7.7,32.7,16.1  c5.3-13.8,12.9-26.5,22.5-37.7c-15.9-12.3-34.9-19.9-54.9-22s-40.2,1.5-58.2,10.4c-18.1,8.8-33.2,22.5-43.8,39.5  c-10.6,17-16.2,36.7-16.1,56.7c0.1,20,5.9,39.6,16.6,56.5c10.8,16.9,26.1,30.5,44.2,39.1c18.1,8.6,38.4,12,58.3,9.8  c20-2.3,38.9-10.1,54.7-22.5C408.5,393,400.7,380.3,395.3,366.6z M514.6,214.2c-21.2,0-41.9,6.3-59.5,18  c-17.6,11.7-31.3,28.4-39.5,47.9c-8.1,19.5-10.2,40.9-6.1,61.6c4.1,20.7,14.3,39.7,29.3,54.6c15,14.9,34.1,25.1,54.9,29.2  c20.8,4.1,42.3,2,61.9-6.1c19.6-8.1,36.3-21.7,48.1-39.3c11.8-17.5,18-38.2,18-59.2c0-14-2.8-27.9-8.2-40.8  c-5.4-12.9-13.3-24.7-23.2-34.6c-9.9-9.9-21.8-17.7-34.8-23.1C542.6,217,528.7,214.2,514.6,214.2z M514.6,384.1  c-12.6,0-24.9-3.7-35.3-10.7c-10.5-7-18.6-16.8-23.4-28.4c-4.8-11.6-6.1-24.3-3.6-36.6c2.5-12.3,8.5-23.6,17.4-32.4  c8.9-8.9,20.2-14.9,32.6-17.3c12.3-2.4,25.1-1.2,36.8,3.6c11.6,4.8,21.6,12.9,28.6,23.3c7,10.4,10.7,22.7,10.7,35.2  c0,16.8-6.7,32.9-18.6,44.8C547.7,377.4,531.5,384.1,514.6,384.1z" fill="#e5dddd"/>
<path class="st0" d="M593.5,411.5c0-1.4,0.2-2.7,0.5-4c0.3-1.3,0.8-2.5,1.5-3.6c0.6-1.1,1.4-2.1,2.2-3c0.9-0.9,1.8-1.7,2.9-2.3  c1.6-1,3.5-1.6,5.3-1.9c1.9-0.3,3.8-0.1,5.6,0.4c1.2,0.3,2.3,0.8,3.4,1.5c1.1,0.6,2,1.4,2.9,2.3c0.9,0.9,1.6,1.9,2.2,3  c0.6,1.1,1.1,2.3,1.5,3.6c0.7,2.7,0.7,5.4,0,8.1c-0.3,1.3-0.8,2.5-1.5,3.6c-0.6,1.1-1.4,2.1-2.2,3c-0.9,0.9-1.8,1.7-2.9,2.3  c-1.1,0.6-2.2,1.1-3.4,1.5c-2.5,0.7-5.1,0.7-7.6,0c-1.2-0.3-2.4-0.8-3.4-1.5c-1.1-0.7-2-1.4-2.9-2.3c-0.9-0.9-1.6-1.9-2.2-3  c-0.6-1.1-1.1-2.3-1.5-3.6C593.6,414.2,593.5,412.9,593.5,411.5z M595.8,411.5c0,1.7,0.3,3.3,1,4.9c0.6,1.5,1.4,2.8,2.5,4  c1.1,1.1,2.4,2,3.8,2.7c1.5,0.6,3,1,4.6,1c1.6,0,3.2-0.3,4.6-1c1.4-0.6,2.7-1.5,3.8-2.7c1.1-1.2,1.9-2.5,2.5-4c0.6-1.6,1-3.2,1-4.9  c0-1.7-0.3-3.3-1-4.9c-0.6-1.5-1.4-2.8-2.5-4c-1.1-1.1-2.4-2-3.8-2.6c-1.5-0.6-3-1-4.6-1c-1.6,0-3.2,0.3-4.6,1  c-1.4,0.6-2.7,1.5-3.8,2.6c-1.1,1.2-1.9,2.5-2.5,4C596.1,408.2,595.8,409.8,595.8,411.5z M604.8,413v6.8h-2.9v-17.1h5.6  c0.9,0,1.8,0.1,2.7,0.3c0.7,0.2,1.4,0.5,2,1c0.6,0.4,1,1,1.3,1.6c0.3,0.7,0.5,1.5,0.4,2.3c0,0.8-0.2,1.5-0.6,2.2  c-0.5,0.7-1.2,1.2-1.9,1.6c0.4,0.2,0.8,0.4,1.2,0.7c0.3,0.3,0.6,0.6,0.8,0.9c0.2,0.4,0.3,0.8,0.4,1.2c0.1,0.4,0.1,0.9,0.1,1.3v1.1  c0,0.5,0,0.9,0,1.4c0,0.4,0.1,0.8,0.3,1.1v0.3h-2.9c-0.1-0.2-0.1-0.4-0.2-0.7c0-0.3,0-0.5,0-0.8c0-0.3,0-0.6,0-0.8v-1.7  c0.1-0.8-0.2-1.5-0.7-2.1c-0.6-0.5-1.5-0.8-2.3-0.7L604.8,413z M604.8,410.4h3.1c0.4,0,0.8-0.1,1.2-0.2c0.4-0.1,0.7-0.3,1-0.5  c0.3-0.2,0.5-0.5,0.7-0.8c0.2-0.3,0.3-0.7,0.3-1.1c0-0.5-0.1-1-0.3-1.4c-0.1-0.3-0.3-0.6-0.6-0.8c-0.3-0.2-0.7-0.4-1.1-0.4  c-0.6-0.1-1.1-0.2-1.7-0.1h-2.7L604.8,410.4z" fill="#e5dddd"/>
</svg>